<svg preserveAspectRatio="none" width="100%" height="100%" overflow="visible" style="display: block;" viewBox="0 0 23.6572 22.7139" fill="none" xmlns="http://www.w3.org/2000/svg">
<g id="export-arrow-up-svgrepo-com 1">
<path id="Vector" d="M11.8286 14.9201C11.6013 14.9201 11.3833 14.8298 11.2225 14.669C11.0618 14.5083 10.9715 14.2903 10.9715 14.063V1.24287C10.9715 1.01554 11.0618 0.797526 11.2225 0.636776C11.3833 0.476036 11.6013 0.385726 11.8286 0.385726C12.0559 0.385726 12.2739 0.476036 12.4347 0.636776C12.5954 0.797526 12.6857 1.01554 12.6857 1.24287V14.0616C12.6859 14.1743 12.6639 14.2859 12.6209 14.39C12.5779 14.4942 12.5148 14.5888 12.4352 14.6686C12.3556 14.7483 12.261 14.8116 12.1569 14.8547C12.0528 14.8979 11.9413 14.9201 11.8286 14.9201Z" fill="var(--fill-0, white)"/>
<path id="Vector_2" d="M6.2544 6.73476C6.08499 6.73446 5.91947 6.68402 5.7787 6.58978C5.63792 6.49555 5.5282 6.36174 5.46337 6.20523C5.39854 6.04872 5.3815 5.87652 5.41439 5.71034C5.44729 5.54416 5.52866 5.39145 5.64823 5.27144L10.2775 0.642186C10.689 0.230986 11.2469 0 11.8286 0C12.4103 0 12.9682 0.230986 13.3797 0.642186L18.0096 5.27144C18.0894 5.35105 18.1526 5.44558 18.1959 5.54964C18.2391 5.6537 18.2613 5.76525 18.2614 5.87792C18.2615 5.99059 18.2394 6.10218 18.1964 6.20631C18.1534 6.31044 18.0903 6.40508 18.0107 6.48482C17.9311 6.56455 17.8365 6.62783 17.7325 6.67104C17.6284 6.71425 17.5169 6.73653 17.4042 6.73663C17.2915 6.73672 17.1799 6.71463 17.0758 6.6716C16.9717 6.62857 16.877 6.56545 16.7973 6.48584L12.1715 1.85453C12.1269 1.80995 12.074 1.77459 12.0157 1.75047C11.9575 1.72634 11.8951 1.71392 11.832 1.71392C11.769 1.71392 11.7066 1.72634 11.6483 1.75047C11.5901 1.77459 11.5372 1.80995 11.4926 1.85453L6.85988 6.48584C6.78035 6.56519 6.6859 6.62803 6.58199 6.67075C6.47808 6.71347 6.36675 6.73522 6.2544 6.73476Z" fill="var(--fill-0, white)"/>
<path id="Vector_3" d="M21.3847 22.7139H2.27246C1.67005 22.7134 1.09246 22.4739 0.666431 22.048C0.240401 21.6221 0.000726 21.0446 0 20.4422V14.4504C0 14.2231 0.090306 14.005 0.251052 13.8443C0.411797 13.6835 0.629815 13.5932 0.857142 13.5932C1.08447 13.5932 1.30249 13.6835 1.46323 13.8443C1.62398 14.005 1.71428 14.2231 1.71428 14.4504V20.4422C1.71465 20.59 1.77359 20.7317 1.87821 20.8362C1.98283 20.9407 2.12459 20.9995 2.27246 20.9996H21.3847C21.5326 20.9995 21.6743 20.9407 21.779 20.8362C21.8836 20.7317 21.9425 20.59 21.9429 20.4422V14.4504C21.9429 14.2231 22.0332 14.005 22.1939 13.8443C22.3547 13.6835 22.5727 13.5932 22.8 13.5932C23.0274 13.5932 23.2454 13.6835 23.4061 13.8443C23.5669 14.005 23.6572 14.2231 23.6572 14.4504V20.4422C23.6564 21.0446 23.4168 21.6221 22.9907 22.048C22.5647 22.4739 21.9871 22.7134 21.3847 22.7139Z" fill="var(--fill-0, white)"/>
</g>
</svg>
