<svg preserveAspectRatio="none" width="100%" height="100%" overflow="visible" style="display: block;" viewBox="0 0 12 16" fill="none" xmlns="http://www.w3.org/2000/svg">
<g id="Img">
<path id="Vector" d="M6 0C4.34375 0 3 1.34375 3 3V8C3 9.65625 4.34375 11 6 11C7.65625 11 9 9.65625 9 8V3C9 1.34375 7.65625 0 6 0ZM2 6.75C2 6.33437 1.66563 6 1.25 6C0.834375 6 0.5 6.33437 0.5 6.75V8C0.5 10.7844 2.56875 13.0844 5.25 13.45V14.5H3.75C3.33437 14.5 3 14.8344 3 15.25C3 15.6656 3.33437 16 3.75 16H6H8.25C8.66563 16 9 15.6656 9 15.25C9 14.8344 8.66563 14.5 8.25 14.5H6.75V13.45C9.43125 13.0844 11.5 10.7844 11.5 8V6.75C11.5 6.33437 11.1656 6 10.75 6C10.3344 6 10 6.33437 10 6.75V8C10 10.2094 8.20937 12 6 12C3.79063 12 2 10.2094 2 8V6.75Z" fill="var(--fill-0, white)"/>
</g>
</svg>
