<svg preserveAspectRatio="none" width="100%" height="100%" overflow="visible" style="display: block;" viewBox="0 0 20 20" fill="none" xmlns="http://www.w3.org/2000/svg">
<g id="Title Icon">
<path id="Vector" d="M12.5 4.16667H2.5C1.57953 4.16667 0.833334 4.91286 0.833334 5.83333V12.5C0.833334 13.4205 1.57953 14.1667 2.5 14.1667H12.5C13.4205 14.1667 14.1667 13.4205 14.1667 12.5V5.83333C14.1667 4.91286 13.4205 4.16667 12.5 4.16667Z" stroke="var(--stroke-0, white)" stroke-width="1.66667"/>
<path id="Vector_2" d="M14.1667 7.5H16.6667L19.1667 10V13.3333H14.1667" stroke="var(--stroke-0, white)" stroke-width="1.66667" stroke-linejoin="round"/>
<path id="Vector_3" d="M4.58333 15.8333C5.27369 15.8333 5.83333 15.2737 5.83333 14.5833C5.83333 13.893 5.27369 13.3333 4.58333 13.3333C3.89298 13.3333 3.33333 13.893 3.33333 14.5833C3.33333 15.2737 3.89298 15.8333 4.58333 15.8333Z" fill="var(--fill-0, white)"/>
<path id="Vector_4" d="M12.0833 15.8333C12.7737 15.8333 13.3333 15.2737 13.3333 14.5833C13.3333 13.893 12.7737 13.3333 12.0833 13.3333C11.393 13.3333 10.8333 13.893 10.8333 14.5833C10.8333 15.2737 11.393 15.8333 12.0833 15.8333Z" fill="var(--fill-0, white)"/>
<path id="Vector_5" d="M17.0833 15.8333C17.7737 15.8333 18.3333 15.2737 18.3333 14.5833C18.3333 13.893 17.7737 13.3333 17.0833 13.3333C16.393 13.3333 15.8333 13.893 15.8333 14.5833C15.8333 15.2737 16.393 15.8333 17.0833 15.8333Z" fill="var(--fill-0, white)"/>
<path id="Vector_6" d="M0.833334 7.5H14.1667" stroke="var(--stroke-0, white)" stroke-width="1.25"/>
</g>
</svg>
