<svg preserveAspectRatio="none" width="100%" height="100%" overflow="visible" style="display: block;" viewBox="0 0 21.2002 17.2" fill="none" xmlns="http://www.w3.org/2000/svg">
<path id="Vector" d="M14.2002 16.2H1.00023V16.1556M1.00023 16.2V10.8498C1.00023 10.3507 1.00023 10.101 1.07583 9.86825C1.14283 9.66191 1.25311 9.46621 1.40218 9.28894C1.57029 9.08897 1.8056 8.92148 2.27405 8.58832L5.03595 6.62397C5.94164 5.97982 6.39482 5.65751 6.90722 5.53523C7.35896 5.42743 7.84107 5.42743 8.29275 5.53523C8.80563 5.65761 9.25947 5.98009 10.1667 6.62532L12.9267 8.58832C13.3956 8.92186 13.6296 9.08887 13.7979 9.28894C13.9469 9.46621 14.0571 9.66191 14.124 9.86825C14.1996 10.101 14.2002 10.3507 14.2002 10.8498V16.2M4.60023 6.70019V4.04019C4.60023 2.97609 4.60023 2.44364 4.86182 2.03721C5.09191 1.6797 5.45879 1.38924 5.91039 1.20709C6.42377 1 7.09634 1 8.44047 1H16.3605C17.7046 1 18.3758 1 18.8891 1.20709C19.3407 1.38924 19.7088 1.6797 19.9389 2.03721C20.2002 2.44324 20.2002 2.97504 20.2002 4.03707V16.2H14.2002M20.2002 16.2V14.8949" stroke="var(--stroke-0, white)" stroke-width="2" stroke-linecap="round" stroke-linejoin="round"/>
</svg>
