<svg preserveAspectRatio="none" width="100%" height="100%" overflow="visible" style="display: block;" viewBox="0 0 26.0003 26.0003" fill="none" xmlns="http://www.w3.org/2000/svg">
<path id="Vector" d="M13.0002 17.8002V13.0002M13.0002 8.20017H13.0122M1.00017 8.82745V17.1729C1.00017 17.4663 1.00017 17.6131 1.03332 17.7512C1.06272 17.8737 1.1112 17.9907 1.177 18.0981C1.25121 18.2192 1.35498 18.323 1.56252 18.5305L7.46981 24.4378C7.67735 24.6453 7.78113 24.7491 7.90223 24.8233C8.00959 24.8892 8.12664 24.9376 8.24909 24.967C8.3872 25.0002 8.53395 25.0002 8.82745 25.0002H17.1729C17.4663 25.0002 17.6131 25.0002 17.7512 24.967C17.8737 24.9376 17.9907 24.8892 18.0981 24.8233C18.2192 24.7491 18.323 24.6453 18.5305 24.4378L24.4378 18.5305C24.6453 18.323 24.7491 18.2192 24.8233 18.0981C24.8892 17.9907 24.9376 17.8737 24.967 17.7512C25.0002 17.6131 25.0002 17.4663 25.0002 17.1729V8.82745C25.0002 8.53395 25.0002 8.3872 24.967 8.24909C24.9376 8.12664 24.8892 8.00959 24.8233 7.90223C24.7491 7.78113 24.6453 7.67735 24.4378 7.46981L18.5305 1.56252C18.323 1.35498 18.2192 1.25121 18.0981 1.177C17.9907 1.1112 17.8737 1.06272 17.7512 1.03332C17.6131 1.00017 17.4663 1.00017 17.1729 1.00017H8.82745C8.53395 1.00017 8.3872 1.00017 8.24909 1.03332C8.12664 1.06272 8.00959 1.1112 7.90223 1.177C7.78113 1.25121 7.67735 1.35498 7.46981 1.56252L1.56252 7.46981C1.35498 7.67735 1.25121 7.78113 1.177 7.90223C1.1112 8.00959 1.06272 8.12664 1.03332 8.24909C1.00017 8.3872 1.00017 8.53395 1.00017 8.82745Z" stroke="var(--stroke-0, white)" stroke-width="2" stroke-linecap="round" stroke-linejoin="round"/>
</svg>
