<svg preserveAspectRatio="none" width="100%" height="100%" overflow="visible" style="display: block;" viewBox="0 0 384.001 426" fill="none" xmlns="http://www.w3.org/2000/svg">
<path id="Vector 41" d="M2 263.576H120.593M382 380.29L372.588 374.878C362.065 368.827 350.14 365.643 338.002 365.643H330.15C323.486 365.643 316.933 363.942 311.111 360.701C308.272 359.12 305.246 357.899 302.105 357.066L280.945 351.454L273.224 349.669C260.975 346.837 248.113 348.558 237.039 354.511C226.927 359.947 215.295 361.869 203.972 359.974L202.176 359.673C196.811 358.776 191.603 357.116 186.708 354.746L156.973 340.345C151.876 337.876 147.504 334.132 144.281 329.475L144.032 329.116C141.386 325.292 137.911 322.114 133.866 319.818C123.359 313.854 117.285 302.319 118.313 290.281L120.593 263.576L122.525 82.3533C122.626 72.8656 119.435 63.6363 113.495 56.2375M113.495 56.2375L94.7801 75.9787C88.902 82.1793 81.174 86.3098 72.7526 87.7521C68.0766 88.5529 63.5827 90.1885 59.4859 92.5806L55.3142 95.0164C47.4175 99.6271 40.562 105.824 35.18 113.217L34.9934 113.473C29.6175 120.857 25.7915 129.253 23.7456 138.154L22.3284 144.321C20.7514 151.183 18.4442 157.856 15.4463 164.227L9.72528 176.384L3.04396 187.14M154.418 2L136.879 20.308L126.022 39.5315L113.495 56.2375M159.22 306.338L163.813 292.182L165.047 286.975C167.003 278.722 168.078 270.285 168.255 261.805L168.929 229.477L169.868 184.394V94.0994C169.868 65.9297 157.871 39.0933 136.879 20.308M168.929 229.477L267.625 231.279C292.783 231.738 316.787 241.918 334.604 259.685M334.604 259.685L328.289 266.113C323.206 271.286 315.628 273.127 308.739 270.861L307.515 270.459C306.1 269.994 304.61 269.793 303.122 269.867C296.664 270.189 291.593 275.518 291.593 281.984V323.306M334.604 259.685L338.475 257.165C345.48 252.602 352.942 248.785 360.741 245.774L367.385 243.208L382 239.775M291.593 323.306L264.495 319.327C253.683 317.739 242.642 319.191 232.608 323.521C225.24 326.701 217.3 328.341 209.276 328.341H208.95C196.041 328.341 183.471 324.209 173.079 316.551L160.225 307.079C146.923 297.276 131.567 290.624 115.318 287.627L84.0673 281.861C79.1974 280.963 74.2557 280.511 69.3037 280.511H61.6458C53.8674 280.511 46.1989 282.348 39.2645 285.871L36.0399 287.51C30.0279 290.565 24.9777 295.223 21.4473 300.969L20.7579 302.091C20.2241 302.96 19.7587 303.868 19.3659 304.809L19.0649 305.53C16.1904 312.415 9.46058 316.898 2 316.898M291.593 323.306L382 356.718M280.945 351.454L291.593 370.22L295.264 375.462C301.933 384.988 310.479 393.049 320.377 399.152L324.097 401.445C327.194 403.355 330.061 405.614 332.642 408.179C340.266 415.755 350.236 420.518 360.92 421.689L382 424" stroke="url(#paint0_linear_0_4)" stroke-width="4" stroke-linecap="round" stroke-linejoin="round"/>
<defs>
<linearGradient id="paint0_linear_0_4" x1="2" y1="213" x2="382" y2="213" gradientUnits="userSpaceOnUse">
<stop stop-color="white"/>
<stop offset="1" stop-color="white" stop-opacity="0"/>
</linearGradient>
</defs>
</svg>
