<svg preserveAspectRatio="none" width="100%" height="100%" overflow="visible" style="display: block;" viewBox="0 0 389 257.001" fill="none" xmlns="http://www.w3.org/2000/svg">
<g id="Group 46">
<path id="Vector 41" d="M240.642 2V80.9582M347.122 255L341.384 247.717C336.445 241.449 333.76 233.702 333.76 225.722V221.3C333.76 216.379 332.143 211.595 329.159 207.683C327.78 205.875 326.684 203.869 325.908 201.733L320.815 187.719L319.484 183.516C316.778 174.977 318.321 165.659 323.634 158.447C328.472 151.878 330.206 143.527 328.383 135.576L328.266 135.067C327.481 131.644 326.084 128.391 324.142 125.465L311.3 106.115C308.642 102.109 304.988 98.8631 300.697 96.6956L300.388 96.5399C296.929 94.7926 293.9 92.2994 291.521 89.2402C286.205 82.4056 277.855 78.6392 269.214 79.1777L240.642 80.9582L74.0203 82.2542C66.102 82.3158 58.3145 80.2349 51.4823 76.2319M51.4823 76.2319L71.1019 62.6587C75.6749 59.495 78.9102 54.7461 80.1806 49.3325C80.943 46.084 82.4203 43.0464 84.5049 40.441L87.553 36.6313C91.3042 31.9428 95.9747 28.0709 101.277 25.2536L104.811 23.3762C110.837 20.1746 117.34 17.9668 124.07 16.8381L132.05 15.4996C138.18 14.4716 144.214 12.9405 150.092 10.9219L161.095 7.14341L170.907 2.69505M2.00017 103.478L18.703 91.8011L36.241 84.5725L51.4823 76.2319M279.654 106.675L266.74 109.734L259.907 110.915C253.754 111.979 247.527 112.561 241.283 112.656L209.533 113.139L168.402 113.765L80.3898 113.765C57.9119 113.765 36.1229 106.007 18.703 91.8011M209.533 113.139L211.047 173.66C211.54 193.396 221.161 211.786 237.092 223.445M237.092 223.445L244.024 218.474C247.886 215.705 249.259 210.597 247.307 206.265L247.079 205.758C246.554 204.593 246.324 203.316 246.412 202.041C246.689 197.969 250.073 194.808 254.155 194.808H295.135M237.092 223.445L233.882 227.042C230.328 231.024 227.271 235.421 224.775 240.138C222.968 243.552 221.465 247.118 220.281 250.796L218.928 255M295.135 194.808L291.65 177.492C290.13 169.936 291.46 162.082 295.383 155.448C298.227 150.639 299.728 145.153 299.728 139.566C299.728 131.239 296.399 123.257 290.482 117.398L279.939 106.957C271.304 98.4057 265.166 87.6593 262.187 75.8766L257.34 56.7019C256.511 53.4239 256.092 50.0558 256.092 46.6747V43.7266C256.092 37.2861 258.065 31.0002 261.745 25.7149C265.013 21.0217 269.497 17.3061 274.715 14.9662L276.97 13.9549L281.443 12.5921C286.104 11.172 289.289 6.87228 289.289 2M295.135 194.808L325.617 255M320.815 187.719L337.936 194.808L344.471 198.148C352.009 201.999 358.705 207.313 364.168 213.78L366.524 216.569C368.199 218.551 370.101 220.328 372.193 221.864C379.265 227.058 383.975 234.857 385.278 243.535L387 255" stroke="url(#paint0_linear_0_19)" stroke-width="4" stroke-linecap="round" stroke-linejoin="round"/>
</g>
<defs>
<linearGradient id="paint0_linear_0_19" x1="194.5" y1="2" x2="194.5" y2="255" gradientUnits="userSpaceOnUse">
<stop stop-color="white"/>
<stop offset="1" stop-color="white" stop-opacity="0"/>
</linearGradient>
</defs>
</svg>
