<svg xmlns="http://www.w3.org/2000/svg" width="20" height="20" viewBox="0 0 20 20" fill="none" aria-hidden="true">
  <path d="M7.5 8.33333C8.88071 8.33333 10 7.21405 10 5.83333C10 4.45262 8.88071 3.33333 7.5 3.33333C6.11929 3.33333 5 4.45262 5 5.83333C5 7.21405 6.11929 8.33333 7.5 8.33333Z" stroke="white" stroke-width="1.5"/>
  <path d="M14.1667 8.33333C15.5474 8.33333 16.6667 7.21405 16.6667 5.83333C16.6667 4.45262 15.5474 3.33333 14.1667 3.33333C12.786 3.33333 11.6667 4.45262 11.6667 5.83333C11.6667 7.21405 12.786 8.33333 14.1667 8.33333Z" stroke="white" stroke-width="1.5"/>
  <path d="M18.3333 17.5C18.3333 14.7417 15.725 12.5 12.5 12.5M10.8333 17.5C10.8333 15.2 9.34166 13.3333 7.49999 13.3333C5.65833 13.3333 4.16667 15.2 4.16667 17.5" stroke="white" stroke-width="1.5" stroke-linecap="round"/>
</svg>
