<svg preserveAspectRatio="none" width="100%" height="100%" overflow="visible" style="display: block;" viewBox="0 0 24 24" fill="none" xmlns="http://www.w3.org/2000/svg">
<path id="Vector" d="M24 2.85714V6.85714H22.8571V2.85714C22.8565 2.40267 22.6757 1.96699 22.3544 1.64563C22.033 1.32427 21.5973 1.14346 21.1429 1.14286H17.1429V0H21.1429C21.9003 0.000907347 22.6265 0.302218 23.1622 0.83784C23.6978 1.37346 23.9991 2.09966 24 2.85714ZM2.85714 22.8571C2.40267 22.8565 1.96699 22.6757 1.64563 22.3544C1.32427 22.033 1.14346 21.5973 1.14286 21.1429V17.1429H0V21.1429C0.000907347 21.9003 0.302218 22.6265 0.83784 23.1622C1.37346 23.6978 2.09966 23.9991 2.85714 24H6.85714V22.8571H2.85714ZM22.8571 21.1429C22.8565 21.5973 22.6757 22.033 22.3544 22.3544C22.033 22.6757 21.5973 22.8565 21.1429 22.8571H17.1429V24H21.1429C21.9003 23.9991 22.6265 23.6978 23.1622 23.1622C23.6978 22.6265 23.9991 21.9003 24 21.1429V17.1429H22.8571V21.1429ZM1.14286 2.85714C1.14346 2.40267 1.32427 1.96699 1.64563 1.64563C1.96699 1.32427 2.40267 1.14346 2.85714 1.14286H6.85714V0H2.85714C2.09966 0.000907347 1.37346 0.302218 0.83784 0.83784C0.302218 1.37346 0.000907347 2.09966 0 2.85714V6.85714H1.14286V2.85714ZM9.14286 19.4286V4.57143H8V19.4286H9.14286ZM4.57143 4.57143V19.4286H6.85714V4.57143H4.57143ZM13.7143 19.4286V4.57143H11.4286V19.4286H13.7143ZM17.1429 4.57143V19.4286H19.4286V4.57143H17.1429ZM14.8571 4.57143V19.4286H16V4.57143H14.8571Z" fill="var(--fill-0, white)"/>
</svg>
