<svg xmlns="http://www.w3.org/2000/svg" width="20" height="20" viewBox="0 0 20 20" fill="none" aria-hidden="true">
  <path d="M11.6667 6.66667H2.5C1.57953 6.66667 0.833334 7.41286 0.833334 8.33333V13.3333C0.833334 14.2538 1.57953 15 2.5 15H11.6667C12.5871 15 13.3333 14.2538 13.3333 13.3333V8.33333C13.3333 7.41286 12.5871 6.66667 11.6667 6.66667Z" stroke="white" stroke-width="1.66667"/>
  <path d="M13.3333 8.33333H15.8333L18.3333 10.8333V15H13.3333V8.33333Z" stroke="white" stroke-width="1.66667" stroke-linejoin="round"/>
  <path d="M4.5 17.5C5.32843 17.5 6 16.8284 6 16C6 15.1716 5.32843 14.5 4.5 14.5C3.67157 14.5 3 15.1716 3 16C3 16.8284 3.67157 17.5 4.5 17.5Z" fill="white"/>
  <path d="M15.5 17.5C16.3284 17.5 17 16.8284 17 16C17 15.1716 16.3284 14.5 15.5 14.5C14.6716 14.5 14 15.1716 14 16C14 16.8284 14.6716 17.5 15.5 17.5Z" fill="white"/>
</svg>
