<svg xmlns="http://www.w3.org/2000/svg" width="20" height="20" viewBox="0 0 20 20" fill="none" aria-hidden="true">
  <path d="M7.5 2.5H3.33333C2.8731 2.5 2.5 2.8731 2.5 3.33333V7.5C2.5 7.96024 2.8731 8.33333 3.33333 8.33333H7.5C7.96024 8.33333 8.33333 7.96024 8.33333 7.5V3.33333C8.33333 2.8731 7.96024 2.5 7.5 2.5Z" stroke="white" stroke-width="1.66667"/>
  <path d="M16.6667 2.5H12.5C12.0398 2.5 11.6667 2.8731 11.6667 3.33333V7.5C11.6667 7.96024 12.0398 8.33333 12.5 8.33333H16.6667C17.1269 8.33333 17.5 7.96024 17.5 7.5V3.33333C17.5 2.8731 17.1269 2.5 16.6667 2.5Z" stroke="white" stroke-width="1.66667"/>
  <path d="M7.5 11.6667H3.33333C2.8731 11.6667 2.5 12.0398 2.5 12.5V16.6667C2.5 17.1269 2.8731 17.5 3.33333 17.5H7.5C7.96024 17.5 8.33333 17.1269 8.33333 16.6667V12.5C8.33333 12.0398 7.96024 11.6667 7.5 11.6667Z" stroke="white" stroke-width="1.66667"/>
  <path d="M11.6667 14.5833H17.5M14.5833 11.6667V17.5" stroke="white" stroke-width="1.66667" stroke-linecap="round"/>
</svg>
