<svg xmlns="http://www.w3.org/2000/svg" width="20" height="20" viewBox="0 0 20 20" fill="none" aria-hidden="true">
  <path d="M20 2.38095V5.71429H19.0476V2.38095C19.0471 2.00223 18.8964 1.63916 18.6286 1.37136C18.3608 1.10356 17.9978 0.952885 17.619 0.952381H14.2857V0H17.619C18.2503 0.000756123 18.8554 0.251849 19.3018 0.6982C19.7482 1.14455 19.9992 1.74972 20 2.38095ZM2.38095 19.0476C2.00223 19.0471 1.63916 18.8964 1.37136 18.6286C1.10356 18.3608 0.952885 17.9978 0.952381 17.619V14.2857H0V17.619C0.000756123 18.2503 0.251849 18.8554 0.6982 19.3018C1.14455 19.7482 1.74972 19.9992 2.38095 20H5.71429V19.0476H2.38095ZM19.0476 17.619C19.0471 17.9978 18.8964 18.3608 18.6286 18.6286C18.3608 18.8964 17.9978 19.0471 17.619 19.0476H14.2857V20H17.619C18.2503 19.9992 18.8554 19.7482 19.3018 19.3018C19.7482 18.8554 19.9992 18.2503 20 17.619V14.2857H19.0476V17.619ZM0.952381 2.38095C0.952885 2.00223 1.10356 1.63916 1.37136 1.37136C1.63916 1.10356 2.00223 0.952885 2.38095 0.952381H5.71429V0H2.38095C1.74972 0.000756123 1.14455 0.251849 0.6982 0.6982C0.251849 1.14455 0.000756123 1.74972 0 2.38095V5.71429H0.952381V2.38095ZM7.61905 16.1905V3.80952H6.66667V16.1905H7.61905ZM3.80952 3.80952V16.1905H5.71429V3.80952H3.80952ZM11.4286 16.1905V3.80952H9.52381V16.1905H11.4286ZM14.2857 3.80952V16.1905H16.1905V3.80952H14.2857ZM12.381 3.80952V16.1905H13.3333V3.80952H12.381Z" fill="white"/>
</svg>
