<svg xmlns="http://www.w3.org/2000/svg" width="24" height="24" viewBox="0 0 24 24" fill="none" aria-hidden="true">
  <path d="M12 15.84C11.7727 15.84 11.5547 15.7497 11.3939 15.5889C11.2332 15.4282 11.1429 15.2102 11.1429 14.9829V2.16274C11.1429 1.93541 11.2332 1.7174 11.3939 1.55665C11.5547 1.39591 11.7727 1.3056 12 1.3056C12.2273 1.3056 12.4453 1.39591 12.6061 1.55665C12.7668 1.7174 12.8571 1.93541 12.8571 2.16274V14.9815C12.8573 15.0942 12.8353 15.2058 12.7923 15.3099C12.7493 15.4141 12.6862 15.5087 12.6066 15.5885C12.527 15.6682 12.4324 15.7315 12.3283 15.7746C12.2242 15.8178 12.1127 15.84 12 15.84Z" fill="white"/>
  <path d="M6.42583 7.65463C6.25642 7.65433 6.0909 7.60389 5.95013 7.50965C5.80935 7.41542 5.69963 7.28161 5.6348 7.1251C5.56997 6.96859 5.55293 6.79639 5.58582 6.63021C5.61872 6.46403 5.70009 6.31132 5.81966 6.19131L10.4489 1.56206C10.8604 1.15086 11.4183 0.919874 12 0.919874C12.5817 0.919874 13.1396 1.15086 13.5511 1.56206L18.181 6.19131C18.2608 6.27092 18.324 6.36545 18.3673 6.46951C18.4105 6.57357 18.4327 6.68512 18.4328 6.79779C18.4329 6.91046 18.4108 7.02205 18.3678 7.12618C18.3248 7.23031 18.2617 7.32495 18.1821 7.40469C18.1025 7.48442 18.0079 7.5477 17.9039 7.59091C17.7998 7.63412 17.6883 7.6564 17.5756 7.6565C17.4629 7.65659 17.3513 7.6345 17.2472 7.59147C17.1431 7.54844 17.0484 7.48532 16.9687 7.40571L12.3429 2.7744C12.2983 2.72982 12.2454 2.69446 12.1871 2.67034C12.1289 2.64621 12.0665 2.63379 12.0034 2.63379C11.9404 2.63379 11.878 2.64621 11.8197 2.67034C11.7615 2.69446 11.7086 2.72982 11.664 2.7744L7.03131 7.40571C6.95178 7.48506 6.85733 7.5479 6.75342 7.59062C6.64951 7.63334 6.53818 7.65509 6.42583 7.65463Z" fill="white"/>
  <path d="M21.5561 23.6338H2.44389C1.84148 23.6333 1.26389 23.3938 0.837859 22.9679C0.411829 22.542 0.172154 21.9645 0.171428 21.3621V15.3703C0.171428 15.143 0.261734 14.9249 0.42248 14.7642C0.583225 14.6034 0.801243 14.5131 1.02857 14.5131C1.2559 14.5131 1.47392 14.6034 1.63466 14.7642C1.79541 14.9249 1.88571 15.143 1.88571 15.3703V21.3621C1.88608 21.5099 1.94502 21.6516 2.04964 21.7561C2.15426 21.8606 2.29602 21.9194 2.44389 21.9195H21.5561C21.704 21.9194 21.8457 21.8606 21.9504 21.7561C22.055 21.6516 22.1139 21.5099 22.1143 21.3621V15.3703C22.1143 15.143 22.2046 14.9249 22.3653 14.7642C22.5261 14.6034 22.7441 14.5131 22.9714 14.5131C23.1988 14.5131 23.4168 14.6034 23.5775 14.7642C23.7383 14.9249 23.8286 15.143 23.8286 15.3703V21.3621C23.8278 21.9645 23.5882 22.542 23.1621 22.9679C22.7361 23.3938 22.1585 23.6333 21.5561 23.6338Z" fill="white"/>
</svg>
