<svg xmlns="http://www.w3.org/2000/svg" width="24" height="24" viewBox="0 0 24 24" fill="none" aria-hidden="true">
  <path d="M7.5 4.5C7.5 6.15686 6.15686 7.5 4.5 7.5C2.84314 7.5 1.5 6.15686 1.5 4.5C1.5 2.84314 2.84314 1.5 4.5 1.5C6.15686 1.5 7.5 2.84314 7.5 4.5Z" fill="white"/>
  <path d="M22.5 19.5C22.5 21.1569 21.1569 22.5 19.5 22.5C17.8431 22.5 16.5 21.1569 16.5 19.5C16.5 17.8431 17.8431 16.5 19.5 16.5C21.1569 16.5 22.5 17.8431 22.5 19.5Z" fill="white"/>
  <path d="M13.5 6.75C13.5 5.50735 14.5074 4.5 15.75 4.5C16.9926 4.5 18 5.50735 18 6.75V13.5H21V6.75C21 3.8505 18.6495 1.5 15.75 1.5C12.8505 1.5 10.5 3.8505 10.5 6.75V17.25C10.5 18.4926 9.49265 19.5 8.25 19.5C7.00735 19.5 6 18.4926 6 17.25V10.5H3V17.25C3 20.1495 5.3505 22.5 8.25 22.5C11.1495 22.5 13.5 20.1495 13.5 17.25V6.75Z" fill="white"/>
</svg>
