<svg preserveAspectRatio="none" width="100%" height="100%" overflow="visible" style="display: block;" viewBox="0 0 32 32" fill="none" xmlns="http://www.w3.org/2000/svg">
<g id="Icon">
<path id="Vector" d="M11 15C13.7614 15 16 12.7614 16 10C16 7.23858 13.7614 5 11 5C8.23858 5 6 7.23858 6 10C6 12.7614 8.23858 15 11 15Z" stroke="var(--stroke-0, white)" stroke-width="1.925"/>
<path id="Vector_2" d="M2 28C2 22.4 6 19 11 19C16 19 20 22.4 20 28" stroke="var(--stroke-0, white)" stroke-width="1.925" stroke-linecap="round"/>
<path id="Vector_3" opacity="0.6" d="M23 14C25.2091 14 27 12.2091 27 10C27 7.79086 25.2091 6 23 6C20.7909 6 19 7.79086 19 10C19 12.2091 20.7909 14 23 14Z" stroke="var(--stroke-0, white)" stroke-width="1.7875"/>
<path id="Vector_4" opacity="0.6" d="M26 22C27.6 23 29 25 29 28" stroke="var(--stroke-0, white)" stroke-width="1.7875" stroke-linecap="round"/>
</g>
</svg>
